<svg width="36" height="37" viewBox="0 0 36 37" fill="none" xmlns="http://www.w3.org/2000/svg">
<path d="M17.8004 25.6311C21.8161 25.6311 25.0716 22.3757 25.0716 18.36C25.0716 14.3443 21.8161 11.0889 17.8004 11.0889C13.7847 11.0889 10.5293 14.3443 10.5293 18.36C10.5293 22.3757 13.7847 25.6311 17.8004 25.6311Z" stroke="#F4C890" stroke-width="2.6" stroke-linecap="round" stroke-linejoin="round"/>
<path d="M1.44043 25.6312V11.0889C1.44043 6.06926 5.50968 2 10.5294 2H25.0716C30.0913 2 34.1605 6.06926 34.1605 11.0889V25.6312C34.1605 30.6508 30.0913 34.7201 25.0716 34.7201H10.5294C5.50968 34.7201 1.44043 30.6508 1.44043 25.6312Z" stroke="#F4C890" stroke-width="2.6"/>
<path d="M27.7982 8.38091L27.8167 8.36035" stroke="#F4C890" stroke-width="2.6" stroke-linecap="round" stroke-linejoin="round"/>
</svg>
