<svg width="76" height="47" viewBox="0 0 76 47" fill="none" xmlns="http://www.w3.org/2000/svg">
<path d="M11.3182 7.27514C13.3272 7.27514 14.9558 5.64654 14.9558 3.63757C14.9558 1.62859 13.3272 0 11.3182 0C9.30926 0 7.68066 1.62859 7.68066 3.63757C7.68066 5.64654 9.30926 7.27514 11.3182 7.27514Z" fill="#F44831"/>
<path d="M59.4937 19.7573C58.36 23.4106 57.1439 27.1829 55.8457 31.0742C55.2998 32.7171 53.027 31.9613 51.5835 31.8668C50.7191 31.8108 50.2047 31.2806 50.0403 30.2763C48.945 23.6591 47.8444 17.1048 46.7386 10.6135C46.7116 10.4529 46.7165 10.2885 46.753 10.1298C46.7896 9.97102 46.8571 9.82105 46.9517 9.68844C47.0463 9.55582 47.1661 9.44316 47.3043 9.35691C47.4424 9.27066 47.5963 9.2125 47.7569 9.18578C49.0535 8.97582 51.8932 7.93651 52.1819 10.0204C52.6368 13.2433 53.1407 16.3909 53.6936 19.4634C53.8231 20.1772 53.9945 20.1895 54.208 19.5001L57.0477 10.3563C57.1247 10.1102 57.2804 9.89614 57.491 9.74722C57.7016 9.59831 57.9553 9.52276 58.213 9.53221L61.6406 9.66869C61.8747 9.67819 62.1002 9.75869 62.2869 9.89941C62.4736 10.0401 62.6125 10.2343 62.6852 10.456L66.9893 23.4474C67.0023 23.4873 67.0278 23.522 67.0621 23.5463C67.0964 23.5705 67.1376 23.583 67.1796 23.5818C67.2216 23.5806 67.2621 23.5658 67.295 23.5397C67.3279 23.5136 67.3514 23.4775 67.362 23.4369L70.7529 10.7552C70.9873 9.8769 71.5437 9.55146 72.4221 9.77891L75.1043 10.4718C75.257 10.5113 75.4003 10.5808 75.526 10.6761C75.6517 10.7715 75.7574 10.8909 75.8369 11.0275C75.9164 11.164 75.9682 11.3151 75.9893 11.472C76.0104 11.6288 76.0004 11.7884 75.9599 11.9415L70.4589 32.7749C70.3975 33.0079 70.2607 33.2141 70.0699 33.3612C69.8791 33.5084 69.6449 33.5883 69.4039 33.5885L65.5616 33.5832C65.3706 33.5816 65.185 33.5218 65.03 33.4119C64.875 33.302 64.7582 33.1473 64.6955 32.9691L60.0344 19.7468C59.8454 19.2079 59.6652 19.2114 59.4937 19.7573Z" fill="#F44831"/>
<path d="M46.0725 21.5841C46.0092 23.1614 45.6252 24.7103 44.9426 26.1424C44.2599 27.5745 43.2919 28.8618 42.0938 29.9308C40.8958 30.9997 39.4911 31.8294 37.96 32.3725C36.429 32.9156 34.8015 33.1614 33.1705 33.0959C31.5395 33.0304 29.937 32.6549 28.4544 31.9907C26.9718 31.3266 25.6382 30.387 24.5298 29.2253C23.4213 28.0637 22.5596 26.703 21.994 25.2207C21.4284 23.7384 21.1699 22.1637 21.2332 20.5865C21.2966 19.0092 21.6806 17.4603 22.3632 16.0282C23.0459 14.5961 24.0139 13.3088 25.212 12.2398C26.41 11.1709 27.8147 10.3411 29.3458 9.79807C30.8768 9.255 32.5043 9.0092 34.1353 9.07471C35.7662 9.14021 37.3688 9.51574 38.8514 10.1799C40.3339 10.844 41.6675 11.7836 42.776 12.9452C43.8845 14.1069 44.7461 15.4676 45.3118 16.9499C45.8774 18.4322 46.1359 20.0069 46.0725 21.5841ZM33.5052 27.839C34.3742 27.8588 35.2387 27.704 36.0492 27.3836C36.8597 27.0632 37.6005 26.5835 38.2292 25.9717C38.8578 25.36 39.3621 24.6283 39.7132 23.8183C40.0643 23.0084 40.2554 22.1361 40.2755 21.2512C40.2955 20.3664 40.1443 19.4863 39.8303 18.6613C39.5163 17.8362 39.0457 17.0824 38.4454 16.4427C37.8451 15.8031 37.1269 15.2902 36.3317 14.9334C35.5366 14.5766 34.68 14.3828 33.811 14.363C32.942 14.3433 32.0776 14.4981 31.2671 14.8185C30.4565 15.1389 29.7158 15.6186 29.0871 16.2304C28.4584 16.8421 27.9541 17.5738 27.603 18.3838C27.2519 19.1937 27.0609 20.066 27.0408 20.9509C27.0207 21.8357 27.172 22.7158 27.486 23.5408C27.8 24.3659 28.2706 25.1197 28.8709 25.7594C29.4711 26.399 30.1894 26.9119 30.9845 27.2687C31.7797 27.6255 32.6362 27.8193 33.5052 27.839Z" fill="#F44831"/>
<path d="M17.0449 16.5869L18.8558 16.23C19.4507 16.111 19.7674 16.3559 19.8059 16.9648L20.0264 20.3714C20.0396 20.5833 19.9802 20.7934 19.8581 20.967C19.736 21.1407 19.5584 21.2675 19.3545 21.3268L17.9478 21.7414C17.8641 21.7657 17.7924 21.8203 17.746 21.8947C17.6996 21.9691 17.6817 22.0584 17.6958 22.1456C18.5934 27.6361 19.1498 33.4625 17.6013 38.2758C16.0004 43.2729 11.6227 47.5561 6.17948 46.1389C0.374064 44.6324 -0.759724 36.9636 0.416056 32.1135C1.85079 26.1891 5.45336 21.7047 11.2238 18.6603C11.4617 18.5343 11.5545 18.3383 11.502 18.0724L11.1713 16.3402C11.1616 16.2923 11.1404 16.2474 11.1097 16.2094C11.079 16.1714 11.0396 16.1413 10.9948 16.1218C10.95 16.1022 10.9012 16.0937 10.8524 16.097C10.8036 16.1003 10.7564 16.1153 10.7146 16.1407C9.31839 17.0068 7.0928 18.0619 5.45511 17.8624C5.22605 17.8341 5.01001 17.7415 4.83241 17.5955C4.65481 17.4495 4.52302 17.2562 4.45255 17.0383C4.1726 16.16 3.91715 15.2834 3.68619 14.4085C3.3765 13.238 4.03788 12.8706 5.06668 12.6239C7.22928 12.099 9.27639 11.2959 11.208 10.2146C14.0845 8.59789 15.0083 9.44298 15.6907 12.3352C16.0021 13.6544 16.3066 14.9754 16.604 16.2982C16.6271 16.3953 16.686 16.4798 16.7684 16.5337C16.8507 16.5876 16.9499 16.6067 17.0449 16.5869ZM12.0636 24.0825C7.85391 27.1479 4.56278 32.7486 5.47611 38.0449C5.99051 41.0736 9.22915 41.9291 11.124 39.4044C13.9375 35.6566 13.2342 28.6964 12.6515 24.3344C12.6429 24.2706 12.6178 24.2101 12.5788 24.1588C12.5398 24.1075 12.4882 24.0672 12.429 24.0418C12.3698 24.0164 12.305 24.0068 12.2409 24.014C12.1769 24.0211 12.1158 24.0447 12.0636 24.0825Z" fill="#F44831"/>
</svg>
