<svg width="36" height="37" viewBox="0 0 36 37" fill="none" xmlns="http://www.w3.org/2000/svg">
<path d="M34.4403 11.0889V25.6312C34.4403 30.6508 30.371 34.7201 25.3514 34.7201H10.8091C5.78947 34.7201 1.72021 30.6508 1.72021 25.6312V11.0889C1.72021 6.06926 5.78947 2 10.8091 2H25.3514C30.371 2 34.4403 6.06926 34.4403 11.0889Z" stroke="#F4C890" stroke-width="2.6" stroke-linecap="round" stroke-linejoin="round"/>
<path d="M10.6803 22.9855C5.77231 15.6235 13.0729 9.89746 18.0424 9.89746C23.0119 9.89746 27.0404 12.6029 27.0404 18.8955C27.0404 23.865 23.7684 27.0755 20.4964 27.0755C17.2244 27.0755 15.5883 23.8035 16.4063 18.8955" stroke="#F4C890" stroke-width="2.6" stroke-linecap="round" stroke-linejoin="round"/>
<path d="M17.2243 15.6235L12.3163 34.4376" stroke="#F4C890" stroke-width="2.6" stroke-linecap="round" stroke-linejoin="round"/>
</svg>
