<svg width="37" height="37" viewBox="0 0 37 37" fill="none" xmlns="http://www.w3.org/2000/svg">
<path d="M18.3601 2C9.32464 2 2 9.32464 2 18.3601C2 27.3954 9.32464 34.7201 18.3601 34.7201C27.3954 34.7201 34.7201 27.3954 34.7201 18.3601C34.7201 9.32464 27.3954 2 18.3601 2Z" stroke="#F44831" stroke-width="2.6" stroke-linecap="round" stroke-linejoin="round"/>
<path d="M5.71533 28.7419C5.71533 28.7419 9.36202 24.0863 18.36 24.0863C27.3581 24.0863 31.0049 28.7419 31.0049 28.7419" stroke="#F44831" stroke-width="2.6" stroke-linecap="round" stroke-linejoin="round"/>
<path d="M18.3602 18.3604C21.0709 18.3604 23.2682 16.1631 23.2682 13.4524C23.2682 10.7418 21.0709 8.54436 18.3602 8.54436C15.6495 8.54436 13.4521 10.7418 13.4521 13.4524C13.4521 16.1631 15.6495 18.3604 18.3602 18.3604Z" stroke="#F44831" stroke-width="2.6" stroke-linecap="round" stroke-linejoin="round"/>
</svg>
