<svg width="35" height="37" viewBox="0 0 35 37" fill="none" xmlns="http://www.w3.org/2000/svg">
<path d="M16.5991 2.35269C16.969 1.88244 17.6813 1.88244 18.0512 2.35269L20.8352 5.89369C21.0667 6.18801 21.4529 6.31348 21.813 6.2114L26.1467 4.98311C26.7223 4.81999 27.2987 5.23877 27.3214 5.83654L27.4924 10.3377C27.5067 10.7118 27.7452 11.0404 28.0968 11.1695L32.3247 12.7231C32.8862 12.9294 33.1064 13.607 32.7734 14.104L30.2661 17.846C30.0577 18.1571 30.0577 18.5631 30.2661 18.8742L32.7734 22.6161C33.1064 23.1131 32.8862 23.7907 32.3247 23.9971L28.0968 25.5507C27.7452 25.6798 27.5067 26.0083 27.4924 26.3825L27.3214 30.8836C27.2987 31.4814 26.7223 31.9002 26.1467 31.737L21.813 30.5088C21.4529 30.4066 21.0667 30.5322 20.8352 30.8265L18.0512 34.3675C17.6813 34.8377 16.969 34.8377 16.5991 34.3675L13.8151 30.8265C13.5837 30.5322 13.1975 30.4066 12.8373 30.5088L8.50357 31.737C7.92804 31.9002 7.35164 31.4814 7.32893 30.8836L7.1579 26.3825C7.14368 26.0083 6.905 25.6798 6.55358 25.5507L2.32557 23.9971C1.76407 23.7907 1.54391 23.1131 1.8769 22.6161L4.38425 18.8742C4.59265 18.5631 4.59265 18.1571 4.38425 17.846L1.8769 14.104C1.54391 13.607 1.76407 12.9294 2.32557 12.7231L6.5536 11.1695C6.905 11.0404 7.14368 10.7118 7.1579 10.3377L7.32893 5.83654C7.35164 5.23877 7.92804 4.81999 8.50359 4.98311L12.8373 6.2114C13.1975 6.31348 13.5837 6.18801 13.8151 5.89369L16.5991 2.35269Z" stroke="#F44831" stroke-width="2.6"/>
<path d="M12.7075 18.3598L15.7858 21.4382L21.9425 15.2815" stroke="#F44831" stroke-width="2.6" stroke-linecap="round" stroke-linejoin="round"/>
</svg>
