<svg width="50" height="37" viewBox="0 0 50 37" fill="none" xmlns="http://www.w3.org/2000/svg">
<path d="M29.5311 18.3614L21.4663 22.9698V13.7529L29.5311 18.3614Z" fill="black" stroke="#F4C890" stroke-width="2.6" stroke-linecap="round" stroke-linejoin="round"/>
<path d="M1.88049 19.9904V16.7297C1.88049 10.0582 1.88049 6.72247 3.96694 4.57616C6.05341 2.42985 9.33823 2.33695 15.9079 2.15113C19.0209 2.06309 22.2009 2 24.9227 2C27.6444 2 30.8245 2.06309 33.9375 2.15113C40.507 2.33695 43.7919 2.42985 45.8784 4.57616C47.9648 6.72247 47.9648 10.0582 47.9648 16.7297V19.9904C47.9648 26.6618 47.9648 29.9976 45.8784 32.1438C43.7919 34.2901 40.5072 34.383 33.9377 34.569C30.8245 34.657 27.6444 34.7201 24.9227 34.7201C22.2009 34.7201 19.0208 34.657 15.9076 34.569C9.33812 34.383 6.05336 34.2901 3.96692 32.1438C1.88049 29.9976 1.88049 26.6618 1.88049 19.9904Z" stroke="#F4C890" stroke-width="2.6"/>
</svg>
